<mxfile host="app.diagrams.net" agent="Mozilla/5.0 (Windows NT 10.0; Win64; x64) AppleWebKit/537.36 (KHTML, like Gecko) Chrome/130.0.0.0 Safari/537.36" version="24.8.3">
  <diagram name="Página-1" id="vYOOQpAIWhnChm-NmjEL">
    <mxGraphModel dx="989" dy="538" grid="1" gridSize="10" guides="1" tooltips="1" connect="1" arrows="1" fold="1" page="1" pageScale="1" pageWidth="827" pageHeight="1169" math="0" shadow="0">
      <root>
        <mxCell id="0" />
        <mxCell id="1" parent="0" />
        <mxCell id="Is15KDiJSmW2fym8Txf1-1" value="&lt;div&gt;Cliente&lt;/div&gt;" style="rounded=0;whiteSpace=wrap;html=1;" parent="1" vertex="1">
          <mxGeometry x="167.5" y="330" width="70" height="30" as="geometry" />
        </mxCell>
        <mxCell id="Is15KDiJSmW2fym8Txf1-2" value="Nombre" style="ellipse;whiteSpace=wrap;html=1;" parent="1" vertex="1">
          <mxGeometry x="47.5" y="240" width="70" height="40" as="geometry" />
        </mxCell>
        <mxCell id="Is15KDiJSmW2fym8Txf1-3" value="Telefono" style="ellipse;whiteSpace=wrap;html=1;" parent="1" vertex="1">
          <mxGeometry x="245" y="380" width="70" height="30" as="geometry" />
        </mxCell>
        <mxCell id="Is15KDiJSmW2fym8Txf1-4" value="Segundo_Apellido" style="ellipse;whiteSpace=wrap;html=1;" parent="1" vertex="1">
          <mxGeometry x="47.5" y="410" width="100" height="40" as="geometry" />
        </mxCell>
        <mxCell id="Is15KDiJSmW2fym8Txf1-5" value="Primer_Apellido" style="ellipse;whiteSpace=wrap;html=1;" parent="1" vertex="1">
          <mxGeometry x="22.5" y="350" width="90" height="40" as="geometry" />
        </mxCell>
        <mxCell id="Is15KDiJSmW2fym8Txf1-6" value="ID_Cliente (PK)" style="ellipse;whiteSpace=wrap;html=1;" parent="1" vertex="1">
          <mxGeometry x="152.5" y="260" width="100" height="50" as="geometry" />
        </mxCell>
        <mxCell id="Is15KDiJSmW2fym8Txf1-7" value="Email" style="ellipse;whiteSpace=wrap;html=1;" parent="1" vertex="1">
          <mxGeometry x="267.5" y="290" width="70" height="40" as="geometry" />
        </mxCell>
        <mxCell id="Is15KDiJSmW2fym8Txf1-15" value="Vendedor" style="rounded=0;whiteSpace=wrap;html=1;" parent="1" vertex="1">
          <mxGeometry x="407.5" y="525" width="66" height="30" as="geometry" />
        </mxCell>
        <mxCell id="Is15KDiJSmW2fym8Txf1-16" value="Nombre" style="ellipse;whiteSpace=wrap;html=1;" parent="1" vertex="1">
          <mxGeometry x="398.5" y="585" width="70" height="30" as="geometry" />
        </mxCell>
        <mxCell id="Is15KDiJSmW2fym8Txf1-17" value="Email" style="ellipse;whiteSpace=wrap;html=1;" parent="1" vertex="1">
          <mxGeometry x="480" y="575" width="60" height="30" as="geometry" />
        </mxCell>
        <mxCell id="Is15KDiJSmW2fym8Txf1-18" value="Primer_Apellido" style="ellipse;whiteSpace=wrap;html=1;" parent="1" vertex="1">
          <mxGeometry x="440" y="430" width="90" height="40" as="geometry" />
        </mxCell>
        <mxCell id="Is15KDiJSmW2fym8Txf1-19" value="Segundo_Apellido" style="ellipse;whiteSpace=wrap;html=1;" parent="1" vertex="1">
          <mxGeometry x="503.5" y="485" width="110" height="40" as="geometry" />
        </mxCell>
        <mxCell id="Is15KDiJSmW2fym8Txf1-20" value="Teléfono" style="ellipse;whiteSpace=wrap;html=1;" parent="1" vertex="1">
          <mxGeometry x="523.5" y="540" width="70" height="30" as="geometry" />
        </mxCell>
        <mxCell id="Is15KDiJSmW2fym8Txf1-21" value="ID_Vendedor (PK)" style="ellipse;whiteSpace=wrap;html=1;" parent="1" vertex="1">
          <mxGeometry x="328" y="425" width="86" height="50" as="geometry" />
        </mxCell>
        <mxCell id="Is15KDiJSmW2fym8Txf1-29" value="Moto" style="rounded=0;whiteSpace=wrap;html=1;" parent="1" vertex="1">
          <mxGeometry x="360" y="700" width="60" height="30" as="geometry" />
        </mxCell>
        <mxCell id="Is15KDiJSmW2fym8Txf1-30" value="Cantidad_Disponible" style="ellipse;whiteSpace=wrap;html=1;" parent="1" vertex="1">
          <mxGeometry x="315.5" y="625" width="120" height="40" as="geometry" />
        </mxCell>
        <mxCell id="Is15KDiJSmW2fym8Txf1-31" value="ID_Moto (PK)" style="ellipse;whiteSpace=wrap;html=1;" parent="1" vertex="1">
          <mxGeometry x="448.5" y="630" width="70" height="40" as="geometry" />
        </mxCell>
        <mxCell id="Is15KDiJSmW2fym8Txf1-32" value="Color" style="ellipse;whiteSpace=wrap;html=1;" parent="1" vertex="1">
          <mxGeometry x="514" y="670" width="51" height="30" as="geometry" />
        </mxCell>
        <mxCell id="Is15KDiJSmW2fym8Txf1-33" value="Año" style="ellipse;whiteSpace=wrap;html=1;" parent="1" vertex="1">
          <mxGeometry x="514" y="705" width="50" height="20" as="geometry" />
        </mxCell>
        <mxCell id="Is15KDiJSmW2fym8Txf1-34" value="Precio" style="ellipse;whiteSpace=wrap;html=1;" parent="1" vertex="1">
          <mxGeometry x="495.5" y="737.5" width="55" height="30" as="geometry" />
        </mxCell>
        <mxCell id="Is15KDiJSmW2fym8Txf1-35" value="Marca" style="ellipse;whiteSpace=wrap;html=1;" parent="1" vertex="1">
          <mxGeometry x="458.5" y="772.5" width="60" height="30" as="geometry" />
        </mxCell>
        <mxCell id="Is15KDiJSmW2fym8Txf1-36" value="Modelo" style="ellipse;whiteSpace=wrap;html=1;" parent="1" vertex="1">
          <mxGeometry x="388.5" y="760" width="60" height="30" as="geometry" />
        </mxCell>
        <mxCell id="Is15KDiJSmW2fym8Txf1-45" value="Proveedor" style="rounded=0;whiteSpace=wrap;html=1;" parent="1" vertex="1">
          <mxGeometry x="850" y="1070" width="60" height="30" as="geometry" />
        </mxCell>
        <mxCell id="Is15KDiJSmW2fym8Txf1-46" value="Nombre" style="ellipse;whiteSpace=wrap;html=1;" parent="1" vertex="1">
          <mxGeometry x="955" y="1080" width="70" height="30" as="geometry" />
        </mxCell>
        <mxCell id="Is15KDiJSmW2fym8Txf1-47" value="ID_Proveedor (PK)" style="ellipse;whiteSpace=wrap;html=1;" parent="1" vertex="1">
          <mxGeometry x="937.5" y="1035" width="100" height="40" as="geometry" />
        </mxCell>
        <mxCell id="Is15KDiJSmW2fym8Txf1-48" value="Telefono" style="ellipse;whiteSpace=wrap;html=1;" parent="1" vertex="1">
          <mxGeometry x="867.5" y="1139" width="70" height="30" as="geometry" />
        </mxCell>
        <mxCell id="Is15KDiJSmW2fym8Txf1-49" value="Email" style="ellipse;whiteSpace=wrap;html=1;" parent="1" vertex="1">
          <mxGeometry x="797" y="1130" width="60" height="30" as="geometry" />
        </mxCell>
        <mxCell id="Is15KDiJSmW2fym8Txf1-50" value="Dirección" style="ellipse;whiteSpace=wrap;html=1;" parent="1" vertex="1">
          <mxGeometry x="937.5" y="1120" width="75" height="30" as="geometry" />
        </mxCell>
        <mxCell id="Is15KDiJSmW2fym8Txf1-57" value="Usuario" style="rounded=0;whiteSpace=wrap;html=1;" parent="1" vertex="1">
          <mxGeometry x="846" y="385" width="60" height="30" as="geometry" />
        </mxCell>
        <mxCell id="Is15KDiJSmW2fym8Txf1-58" value="ID_Usuario (PK)" style="ellipse;whiteSpace=wrap;html=1;" parent="1" vertex="1">
          <mxGeometry x="842" y="320" width="100" height="40" as="geometry" />
        </mxCell>
        <mxCell id="Is15KDiJSmW2fym8Txf1-60" value="Nombre" style="ellipse;whiteSpace=wrap;html=1;" parent="1" vertex="1">
          <mxGeometry x="922.5" y="360" width="70" height="30" as="geometry" />
        </mxCell>
        <mxCell id="Is15KDiJSmW2fym8Txf1-62" value="Rol&amp;nbsp;" style="ellipse;whiteSpace=wrap;html=1;" parent="1" vertex="1">
          <mxGeometry x="769" y="348.75" width="60" height="30" as="geometry" />
        </mxCell>
        <mxCell id="Is15KDiJSmW2fym8Txf1-64" value="Email" style="ellipse;whiteSpace=wrap;html=1;" parent="1" vertex="1">
          <mxGeometry x="937.5" y="410" width="60" height="30" as="geometry" />
        </mxCell>
        <mxCell id="Is15KDiJSmW2fym8Txf1-69" value="Contraseña" style="ellipse;whiteSpace=wrap;html=1;" parent="1" vertex="1">
          <mxGeometry x="857" y="440" width="80" height="30" as="geometry" />
        </mxCell>
        <mxCell id="Is15KDiJSmW2fym8Txf1-82" style="edgeStyle=orthogonalEdgeStyle;rounded=0;orthogonalLoop=1;jettySize=auto;html=1;" parent="1" source="Is15KDiJSmW2fym8Txf1-72" target="Is15KDiJSmW2fym8Txf1-77" edge="1">
          <mxGeometry relative="1" as="geometry" />
        </mxCell>
        <mxCell id="Is15KDiJSmW2fym8Txf1-72" value="Venta" style="rounded=0;whiteSpace=wrap;html=1;" parent="1" vertex="1">
          <mxGeometry x="172.5" y="530" width="60" height="30" as="geometry" />
        </mxCell>
        <mxCell id="Is15KDiJSmW2fym8Txf1-73" value="ID_Venta (PK)" style="ellipse;whiteSpace=wrap;html=1;" parent="1" vertex="1">
          <mxGeometry x="30" y="585" width="100" height="40" as="geometry" />
        </mxCell>
        <mxCell id="Is15KDiJSmW2fym8Txf1-76" value="Fecha_Venta" style="ellipse;whiteSpace=wrap;html=1;" parent="1" vertex="1">
          <mxGeometry x="20" y="490" width="80" height="30" as="geometry" />
        </mxCell>
        <mxCell id="Is15KDiJSmW2fym8Txf1-77" value="Total" style="ellipse;whiteSpace=wrap;html=1;" parent="1" vertex="1">
          <mxGeometry x="30" y="530" width="60" height="30" as="geometry" />
        </mxCell>
        <mxCell id="Is15KDiJSmW2fym8Txf1-78" value="ID_Cliente (FK a Cliente)" style="ellipse;whiteSpace=wrap;html=1;" parent="1" vertex="1">
          <mxGeometry x="15" y="750" width="100" height="50" as="geometry" />
        </mxCell>
        <mxCell id="Is15KDiJSmW2fym8Txf1-79" value="ID_Vendedor (FK a Vendedor)" style="ellipse;whiteSpace=wrap;html=1;" parent="1" vertex="1">
          <mxGeometry x="5" y="675" width="110" height="50" as="geometry" />
        </mxCell>
        <mxCell id="Is15KDiJSmW2fym8Txf1-85" value="Detalle_Venta" style="rounded=0;whiteSpace=wrap;html=1;" parent="1" vertex="1">
          <mxGeometry x="197.5" y="810" width="84.5" height="30" as="geometry" />
        </mxCell>
        <mxCell id="Is15KDiJSmW2fym8Txf1-86" value="&lt;div&gt;ID_DetalleVenta (PK)&lt;/div&gt;" style="ellipse;whiteSpace=wrap;html=1;" parent="1" vertex="1">
          <mxGeometry x="315.5" y="790" width="110" height="50" as="geometry" />
        </mxCell>
        <mxCell id="Is15KDiJSmW2fym8Txf1-87" value="ID_Venta (FK a Venta)" style="ellipse;whiteSpace=wrap;html=1;" parent="1" vertex="1">
          <mxGeometry x="44.5" y="850" width="110" height="50" as="geometry" />
        </mxCell>
        <mxCell id="Is15KDiJSmW2fym8Txf1-88" value="Precio_Unitario" style="ellipse;whiteSpace=wrap;html=1;" parent="1" vertex="1">
          <mxGeometry x="315.5" y="857.5" width="95" height="40" as="geometry" />
        </mxCell>
        <mxCell id="Is15KDiJSmW2fym8Txf1-89" value="ID_Moto (FK a Moto)" style="ellipse;whiteSpace=wrap;html=1;" parent="1" vertex="1">
          <mxGeometry x="99.5" y="900" width="110" height="50" as="geometry" />
        </mxCell>
        <mxCell id="Is15KDiJSmW2fym8Txf1-90" value="&lt;div&gt;Cantidad&lt;/div&gt;" style="ellipse;whiteSpace=wrap;html=1;" parent="1" vertex="1">
          <mxGeometry x="219.5" y="910" width="70" height="30" as="geometry" />
        </mxCell>
        <mxCell id="Is15KDiJSmW2fym8Txf1-91" value="&lt;div&gt;Subtotal&lt;/div&gt;" style="ellipse;whiteSpace=wrap;html=1;" parent="1" vertex="1">
          <mxGeometry x="300.5" y="905" width="65" height="30" as="geometry" />
        </mxCell>
        <mxCell id="jN78MGByrVWgOa9y6QcH-1" value="Compra" style="rounded=0;whiteSpace=wrap;html=1;" parent="1" vertex="1">
          <mxGeometry x="760" y="920" width="60" height="30" as="geometry" />
        </mxCell>
        <mxCell id="jN78MGByrVWgOa9y6QcH-2" value="ID_Compra (PK)" style="ellipse;whiteSpace=wrap;html=1;" parent="1" vertex="1">
          <mxGeometry x="825" y="855" width="110" height="40" as="geometry" />
        </mxCell>
        <mxCell id="jN78MGByrVWgOa9y6QcH-3" value="Fecha_Compra" style="ellipse;whiteSpace=wrap;html=1;" parent="1" vertex="1">
          <mxGeometry x="727" y="825" width="95" height="40" as="geometry" />
        </mxCell>
        <mxCell id="jN78MGByrVWgOa9y6QcH-5" value="ID_Proveedor (FK a Proveedor)" style="ellipse;whiteSpace=wrap;html=1;" parent="1" vertex="1">
          <mxGeometry x="622" y="865" width="125" height="55" as="geometry" />
        </mxCell>
        <mxCell id="jN78MGByrVWgOa9y6QcH-11" value="Detalle_Compra" style="rounded=0;whiteSpace=wrap;html=1;" parent="1" vertex="1">
          <mxGeometry x="564" y="1035" width="95" height="30" as="geometry" />
        </mxCell>
        <mxCell id="jN78MGByrVWgOa9y6QcH-12" value="ID_DetalleCompra (PK)" style="ellipse;whiteSpace=wrap;html=1;" parent="1" vertex="1">
          <mxGeometry x="414" y="1015" width="110" height="50" as="geometry" />
        </mxCell>
        <mxCell id="jN78MGByrVWgOa9y6QcH-13" value="ID_Compra (FK a Compra)" style="ellipse;whiteSpace=wrap;html=1;" parent="1" vertex="1">
          <mxGeometry x="680" y="1050" width="110" height="50" as="geometry" />
        </mxCell>
        <mxCell id="jN78MGByrVWgOa9y6QcH-14" value="ID_Moto (FK a Moto)" style="ellipse;whiteSpace=wrap;html=1;" parent="1" vertex="1">
          <mxGeometry x="420" y="1089" width="110" height="50" as="geometry" />
        </mxCell>
        <mxCell id="jN78MGByrVWgOa9y6QcH-15" value="&lt;div&gt;Cantidad&lt;/div&gt;" style="ellipse;whiteSpace=wrap;html=1;" parent="1" vertex="1">
          <mxGeometry x="504.5" y="1150" width="70" height="30" as="geometry" />
        </mxCell>
        <mxCell id="jN78MGByrVWgOa9y6QcH-16" value="Precio_Unitario" style="ellipse;whiteSpace=wrap;html=1;" parent="1" vertex="1">
          <mxGeometry x="585" y="1145" width="95" height="40" as="geometry" />
        </mxCell>
        <mxCell id="jN78MGByrVWgOa9y6QcH-19" value="Subtotal" style="ellipse;whiteSpace=wrap;html=1;" parent="1" vertex="1">
          <mxGeometry x="669.5" y="1115" width="77.5" height="30" as="geometry" />
        </mxCell>
        <mxCell id="jN78MGByrVWgOa9y6QcH-28" value="Inventario" style="rounded=0;whiteSpace=wrap;html=1;" parent="1" vertex="1">
          <mxGeometry x="798" y="666.5" width="69.5" height="30" as="geometry" />
        </mxCell>
        <mxCell id="jN78MGByrVWgOa9y6QcH-29" value="ID_Inventario (PK)" style="ellipse;whiteSpace=wrap;html=1;" parent="1" vertex="1">
          <mxGeometry x="902" y="670" width="110" height="40" as="geometry" />
        </mxCell>
        <mxCell id="jN78MGByrVWgOa9y6QcH-30" value="ID_Moto (FK a Moto)" style="ellipse;whiteSpace=wrap;html=1;" parent="1" vertex="1">
          <mxGeometry x="867.5" y="595" width="110" height="50" as="geometry" />
        </mxCell>
        <mxCell id="jN78MGByrVWgOa9y6QcH-31" value="Cantidad_Existente" style="ellipse;whiteSpace=wrap;html=1;" parent="1" vertex="1">
          <mxGeometry x="747" y="605" width="110" height="40" as="geometry" />
        </mxCell>
        <mxCell id="jN78MGByrVWgOa9y6QcH-32" value="Fecha_Ultima_Actualizacion" style="ellipse;whiteSpace=wrap;html=1;" parent="1" vertex="1">
          <mxGeometry x="812.5" y="730" width="180" height="41" as="geometry" />
        </mxCell>
        <mxCell id="jN78MGByrVWgOa9y6QcH-38" value="Compra" style="rhombus;whiteSpace=wrap;html=1;" parent="1" vertex="1">
          <mxGeometry x="166.5" y="410" width="72" height="60" as="geometry" />
        </mxCell>
        <mxCell id="jN78MGByrVWgOa9y6QcH-39" value="" style="endArrow=classic;html=1;rounded=0;exitX=0.5;exitY=0;exitDx=0;exitDy=0;entryX=0.5;entryY=1;entryDx=0;entryDy=0;" parent="1" source="jN78MGByrVWgOa9y6QcH-38" target="Is15KDiJSmW2fym8Txf1-1" edge="1">
          <mxGeometry width="50" height="50" relative="1" as="geometry">
            <mxPoint x="390" y="430" as="sourcePoint" />
            <mxPoint x="440" y="380" as="targetPoint" />
          </mxGeometry>
        </mxCell>
        <mxCell id="jN78MGByrVWgOa9y6QcH-41" value="" style="endArrow=classic;html=1;rounded=0;entryX=0.5;entryY=1;entryDx=0;entryDy=0;exitX=0.5;exitY=0;exitDx=0;exitDy=0;" parent="1" source="Is15KDiJSmW2fym8Txf1-1" target="Is15KDiJSmW2fym8Txf1-6" edge="1">
          <mxGeometry width="50" height="50" relative="1" as="geometry">
            <mxPoint x="300" y="410" as="sourcePoint" />
            <mxPoint x="350" y="360" as="targetPoint" />
          </mxGeometry>
        </mxCell>
        <mxCell id="jN78MGByrVWgOa9y6QcH-42" value="" style="endArrow=classic;html=1;rounded=0;exitX=1;exitY=0;exitDx=0;exitDy=0;entryX=0.021;entryY=0.718;entryDx=0;entryDy=0;entryPerimeter=0;" parent="1" source="Is15KDiJSmW2fym8Txf1-1" target="Is15KDiJSmW2fym8Txf1-7" edge="1">
          <mxGeometry width="50" height="50" relative="1" as="geometry">
            <mxPoint x="300" y="410" as="sourcePoint" />
            <mxPoint x="350" y="360" as="targetPoint" />
          </mxGeometry>
        </mxCell>
        <mxCell id="jN78MGByrVWgOa9y6QcH-43" value="" style="endArrow=classic;html=1;rounded=0;exitX=0;exitY=1;exitDx=0;exitDy=0;entryX=0.932;entryY=0.175;entryDx=0;entryDy=0;entryPerimeter=0;" parent="1" source="Is15KDiJSmW2fym8Txf1-1" target="Is15KDiJSmW2fym8Txf1-4" edge="1">
          <mxGeometry width="50" height="50" relative="1" as="geometry">
            <mxPoint x="150" y="390" as="sourcePoint" />
            <mxPoint x="300" y="410" as="targetPoint" />
          </mxGeometry>
        </mxCell>
        <mxCell id="jN78MGByrVWgOa9y6QcH-45" value="" style="endArrow=classic;html=1;rounded=0;exitX=0;exitY=0.75;exitDx=0;exitDy=0;entryX=1;entryY=0.5;entryDx=0;entryDy=0;" parent="1" source="Is15KDiJSmW2fym8Txf1-1" target="Is15KDiJSmW2fym8Txf1-5" edge="1">
          <mxGeometry width="50" height="50" relative="1" as="geometry">
            <mxPoint x="178" y="370" as="sourcePoint" />
            <mxPoint x="121" y="407" as="targetPoint" />
          </mxGeometry>
        </mxCell>
        <mxCell id="jN78MGByrVWgOa9y6QcH-46" value="" style="endArrow=classic;html=1;rounded=0;entryX=0.384;entryY=0.033;entryDx=0;entryDy=0;entryPerimeter=0;exitX=1;exitY=1;exitDx=0;exitDy=0;" parent="1" source="Is15KDiJSmW2fym8Txf1-1" target="Is15KDiJSmW2fym8Txf1-3" edge="1">
          <mxGeometry width="50" height="50" relative="1" as="geometry">
            <mxPoint x="300" y="410" as="sourcePoint" />
            <mxPoint x="350" y="360" as="targetPoint" />
          </mxGeometry>
        </mxCell>
        <mxCell id="jN78MGByrVWgOa9y6QcH-47" value="" style="endArrow=classic;html=1;rounded=0;exitX=0.25;exitY=1;exitDx=0;exitDy=0;entryX=1;entryY=0;entryDx=0;entryDy=0;" parent="1" source="Is15KDiJSmW2fym8Txf1-72" target="Is15KDiJSmW2fym8Txf1-78" edge="1">
          <mxGeometry width="50" height="50" relative="1" as="geometry">
            <mxPoint x="300" y="470" as="sourcePoint" />
            <mxPoint x="350" y="420" as="targetPoint" />
          </mxGeometry>
        </mxCell>
        <mxCell id="jN78MGByrVWgOa9y6QcH-48" value="" style="endArrow=classic;html=1;rounded=0;exitX=0;exitY=0;exitDx=0;exitDy=0;entryX=1;entryY=0.5;entryDx=0;entryDy=0;" parent="1" source="Is15KDiJSmW2fym8Txf1-72" target="Is15KDiJSmW2fym8Txf1-76" edge="1">
          <mxGeometry width="50" height="50" relative="1" as="geometry">
            <mxPoint x="238" y="540" as="sourcePoint" />
            <mxPoint x="273" y="506" as="targetPoint" />
          </mxGeometry>
        </mxCell>
        <mxCell id="jN78MGByrVWgOa9y6QcH-49" value="" style="endArrow=classic;html=1;rounded=0;entryX=0.464;entryY=0.05;entryDx=0;entryDy=0;entryPerimeter=0;exitX=0;exitY=1;exitDx=0;exitDy=0;" parent="1" source="Is15KDiJSmW2fym8Txf1-72" target="Is15KDiJSmW2fym8Txf1-73" edge="1">
          <mxGeometry width="50" height="50" relative="1" as="geometry">
            <mxPoint x="300" y="470" as="sourcePoint" />
            <mxPoint x="130" y="610" as="targetPoint" />
          </mxGeometry>
        </mxCell>
        <mxCell id="jN78MGByrVWgOa9y6QcH-50" value="" style="endArrow=classic;html=1;rounded=0;entryX=0.336;entryY=0.02;entryDx=0;entryDy=0;entryPerimeter=0;exitX=0.078;exitY=0.997;exitDx=0;exitDy=0;exitPerimeter=0;" parent="1" source="Is15KDiJSmW2fym8Txf1-72" target="Is15KDiJSmW2fym8Txf1-79" edge="1">
          <mxGeometry width="50" height="50" relative="1" as="geometry">
            <mxPoint x="300" y="470" as="sourcePoint" />
            <mxPoint x="350" y="420" as="targetPoint" />
          </mxGeometry>
        </mxCell>
        <mxCell id="jN78MGByrVWgOa9y6QcH-52" value="" style="endArrow=classic;html=1;rounded=0;entryX=0.797;entryY=0.896;entryDx=0;entryDy=0;entryPerimeter=0;exitX=0;exitY=0;exitDx=0;exitDy=0;" parent="1" source="Is15KDiJSmW2fym8Txf1-1" target="Is15KDiJSmW2fym8Txf1-2" edge="1">
          <mxGeometry width="50" height="50" relative="1" as="geometry">
            <mxPoint x="300" y="470" as="sourcePoint" />
            <mxPoint x="350" y="420" as="targetPoint" />
          </mxGeometry>
        </mxCell>
        <mxCell id="jN78MGByrVWgOa9y6QcH-53" value="" style="endArrow=classic;html=1;rounded=0;entryX=0.5;entryY=0;entryDx=0;entryDy=0;exitX=0.5;exitY=1;exitDx=0;exitDy=0;" parent="1" source="jN78MGByrVWgOa9y6QcH-38" target="Is15KDiJSmW2fym8Txf1-72" edge="1">
          <mxGeometry width="50" height="50" relative="1" as="geometry">
            <mxPoint x="300" y="470" as="sourcePoint" />
            <mxPoint x="350" y="420" as="targetPoint" />
          </mxGeometry>
        </mxCell>
        <mxCell id="jN78MGByrVWgOa9y6QcH-54" value="1-n" style="text;html=1;align=center;verticalAlign=middle;whiteSpace=wrap;rounded=0;" parent="1" vertex="1">
          <mxGeometry x="240" y="425" width="60" height="30" as="geometry" />
        </mxCell>
        <mxCell id="jN78MGByrVWgOa9y6QcH-55" value="" style="endArrow=classic;html=1;rounded=0;entryX=0.5;entryY=1;entryDx=0;entryDy=0;exitX=0.153;exitY=0.04;exitDx=0;exitDy=0;exitPerimeter=0;" parent="1" source="Is15KDiJSmW2fym8Txf1-15" target="Is15KDiJSmW2fym8Txf1-21" edge="1">
          <mxGeometry width="50" height="50" relative="1" as="geometry">
            <mxPoint x="226" y="440" as="sourcePoint" />
            <mxPoint x="276" y="390" as="targetPoint" />
          </mxGeometry>
        </mxCell>
        <mxCell id="jN78MGByrVWgOa9y6QcH-56" value="" style="endArrow=classic;html=1;rounded=0;exitX=0.5;exitY=0;exitDx=0;exitDy=0;entryX=0.379;entryY=0.99;entryDx=0;entryDy=0;entryPerimeter=0;" parent="1" source="Is15KDiJSmW2fym8Txf1-15" target="Is15KDiJSmW2fym8Txf1-18" edge="1">
          <mxGeometry width="50" height="50" relative="1" as="geometry">
            <mxPoint x="326" y="520" as="sourcePoint" />
            <mxPoint x="376" y="470" as="targetPoint" />
          </mxGeometry>
        </mxCell>
        <mxCell id="jN78MGByrVWgOa9y6QcH-57" value="" style="endArrow=classic;html=1;rounded=0;entryX=0.741;entryY=0.087;entryDx=0;entryDy=0;entryPerimeter=0;exitX=0.25;exitY=1;exitDx=0;exitDy=0;" parent="1" source="Is15KDiJSmW2fym8Txf1-15" target="Is15KDiJSmW2fym8Txf1-16" edge="1">
          <mxGeometry width="50" height="50" relative="1" as="geometry">
            <mxPoint x="326" y="520" as="sourcePoint" />
            <mxPoint x="376" y="470" as="targetPoint" />
          </mxGeometry>
        </mxCell>
        <mxCell id="jN78MGByrVWgOa9y6QcH-58" value="" style="endArrow=classic;html=1;rounded=0;entryX=0.375;entryY=0.167;entryDx=0;entryDy=0;entryPerimeter=0;exitX=0.75;exitY=1;exitDx=0;exitDy=0;" parent="1" source="Is15KDiJSmW2fym8Txf1-15" target="Is15KDiJSmW2fym8Txf1-17" edge="1">
          <mxGeometry width="50" height="50" relative="1" as="geometry">
            <mxPoint x="446" y="635" as="sourcePoint" />
            <mxPoint x="496" y="580" as="targetPoint" />
          </mxGeometry>
        </mxCell>
        <mxCell id="jN78MGByrVWgOa9y6QcH-59" value="" style="endArrow=classic;html=1;rounded=0;exitX=1;exitY=0.5;exitDx=0;exitDy=0;entryX=0;entryY=0.5;entryDx=0;entryDy=0;" parent="1" source="Is15KDiJSmW2fym8Txf1-15" target="Is15KDiJSmW2fym8Txf1-20" edge="1">
          <mxGeometry width="50" height="50" relative="1" as="geometry">
            <mxPoint x="492" y="585" as="sourcePoint" />
            <mxPoint x="511" y="540" as="targetPoint" />
          </mxGeometry>
        </mxCell>
        <mxCell id="jN78MGByrVWgOa9y6QcH-60" value="" style="endArrow=classic;html=1;rounded=0;exitX=1;exitY=0;exitDx=0;exitDy=0;entryX=0;entryY=1;entryDx=0;entryDy=0;" parent="1" source="Is15KDiJSmW2fym8Txf1-15" target="Is15KDiJSmW2fym8Txf1-19" edge="1">
          <mxGeometry width="50" height="50" relative="1" as="geometry">
            <mxPoint x="461" y="555" as="sourcePoint" />
            <mxPoint x="480" y="510" as="targetPoint" />
          </mxGeometry>
        </mxCell>
        <mxCell id="jN78MGByrVWgOa9y6QcH-62" value="Registra" style="rhombus;whiteSpace=wrap;html=1;" parent="1" vertex="1">
          <mxGeometry x="286.5" y="515" width="72" height="60" as="geometry" />
        </mxCell>
        <mxCell id="jN78MGByrVWgOa9y6QcH-63" value="" style="endArrow=classic;html=1;rounded=0;exitX=0;exitY=0.5;exitDx=0;exitDy=0;entryX=1;entryY=0.5;entryDx=0;entryDy=0;" parent="1" source="jN78MGByrVWgOa9y6QcH-62" target="Is15KDiJSmW2fym8Txf1-72" edge="1">
          <mxGeometry width="50" height="50" relative="1" as="geometry">
            <mxPoint x="213" y="420" as="sourcePoint" />
            <mxPoint x="213" y="370" as="targetPoint" />
          </mxGeometry>
        </mxCell>
        <mxCell id="jN78MGByrVWgOa9y6QcH-64" value="" style="endArrow=classic;html=1;rounded=0;exitX=0;exitY=0.5;exitDx=0;exitDy=0;entryX=0.963;entryY=0.426;entryDx=0;entryDy=0;entryPerimeter=0;" parent="1" source="Is15KDiJSmW2fym8Txf1-15" target="jN78MGByrVWgOa9y6QcH-62" edge="1">
          <mxGeometry width="50" height="50" relative="1" as="geometry">
            <mxPoint x="297" y="555" as="sourcePoint" />
            <mxPoint x="243" y="555" as="targetPoint" />
          </mxGeometry>
        </mxCell>
        <mxCell id="jN78MGByrVWgOa9y6QcH-65" value="" style="endArrow=classic;html=1;rounded=0;entryX=0;entryY=0;entryDx=0;entryDy=0;exitX=0.75;exitY=1;exitDx=0;exitDy=0;" parent="1" source="Is15KDiJSmW2fym8Txf1-85" target="Is15KDiJSmW2fym8Txf1-91" edge="1">
          <mxGeometry width="50" height="50" relative="1" as="geometry">
            <mxPoint x="342" y="880" as="sourcePoint" />
            <mxPoint x="392" y="830" as="targetPoint" />
          </mxGeometry>
        </mxCell>
        <mxCell id="jN78MGByrVWgOa9y6QcH-66" value="" style="endArrow=classic;html=1;rounded=0;entryX=0;entryY=0;entryDx=0;entryDy=0;exitX=1;exitY=1;exitDx=0;exitDy=0;" parent="1" source="Is15KDiJSmW2fym8Txf1-85" target="Is15KDiJSmW2fym8Txf1-88" edge="1">
          <mxGeometry width="50" height="50" relative="1" as="geometry">
            <mxPoint x="292" y="828" as="sourcePoint" />
            <mxPoint x="351" y="810" as="targetPoint" />
          </mxGeometry>
        </mxCell>
        <mxCell id="jN78MGByrVWgOa9y6QcH-67" value="" style="endArrow=classic;html=1;rounded=0;entryX=0;entryY=1;entryDx=0;entryDy=0;exitX=1;exitY=0.75;exitDx=0;exitDy=0;" parent="1" source="Is15KDiJSmW2fym8Txf1-85" target="Is15KDiJSmW2fym8Txf1-86" edge="1">
          <mxGeometry width="50" height="50" relative="1" as="geometry">
            <mxPoint x="271" y="820" as="sourcePoint" />
            <mxPoint x="268" y="785" as="targetPoint" />
          </mxGeometry>
        </mxCell>
        <mxCell id="jN78MGByrVWgOa9y6QcH-69" value="" style="endArrow=classic;html=1;rounded=0;entryX=1;entryY=0.5;entryDx=0;entryDy=0;exitX=0;exitY=0.5;exitDx=0;exitDy=0;" parent="1" source="Is15KDiJSmW2fym8Txf1-85" target="Is15KDiJSmW2fym8Txf1-87" edge="1">
          <mxGeometry width="50" height="50" relative="1" as="geometry">
            <mxPoint x="229" y="820" as="sourcePoint" />
            <mxPoint x="191" y="803" as="targetPoint" />
          </mxGeometry>
        </mxCell>
        <mxCell id="jN78MGByrVWgOa9y6QcH-70" value="" style="endArrow=classic;html=1;rounded=0;entryX=1;entryY=0;entryDx=0;entryDy=0;exitX=0.25;exitY=1;exitDx=0;exitDy=0;" parent="1" source="Is15KDiJSmW2fym8Txf1-85" target="Is15KDiJSmW2fym8Txf1-89" edge="1">
          <mxGeometry width="50" height="50" relative="1" as="geometry">
            <mxPoint x="208" y="835" as="sourcePoint" />
            <mxPoint x="155" y="845" as="targetPoint" />
          </mxGeometry>
        </mxCell>
        <mxCell id="jN78MGByrVWgOa9y6QcH-71" value="" style="endArrow=classic;html=1;rounded=0;entryX=0.5;entryY=0;entryDx=0;entryDy=0;exitX=0.5;exitY=1;exitDx=0;exitDy=0;" parent="1" source="Is15KDiJSmW2fym8Txf1-85" target="Is15KDiJSmW2fym8Txf1-90" edge="1">
          <mxGeometry width="50" height="50" relative="1" as="geometry">
            <mxPoint x="229" y="850" as="sourcePoint" />
            <mxPoint x="206" y="897" as="targetPoint" />
          </mxGeometry>
        </mxCell>
        <mxCell id="jN78MGByrVWgOa9y6QcH-72" value="Tiene" style="rhombus;whiteSpace=wrap;html=1;" parent="1" vertex="1">
          <mxGeometry x="230" y="595" width="60" height="45" as="geometry" />
        </mxCell>
        <mxCell id="jN78MGByrVWgOa9y6QcH-73" value="" style="endArrow=classic;html=1;rounded=0;exitX=0.5;exitY=1;exitDx=0;exitDy=0;entryX=0.25;entryY=0;entryDx=0;entryDy=0;" parent="1" source="jN78MGByrVWgOa9y6QcH-72" target="Is15KDiJSmW2fym8Txf1-85" edge="1">
          <mxGeometry width="50" height="50" relative="1" as="geometry">
            <mxPoint x="310" y="670" as="sourcePoint" />
            <mxPoint x="360" y="620" as="targetPoint" />
          </mxGeometry>
        </mxCell>
        <mxCell id="jN78MGByrVWgOa9y6QcH-74" value="" style="endArrow=classic;html=1;rounded=0;exitX=0.5;exitY=0;exitDx=0;exitDy=0;entryX=0.5;entryY=1;entryDx=0;entryDy=0;" parent="1" source="jN78MGByrVWgOa9y6QcH-72" target="Is15KDiJSmW2fym8Txf1-72" edge="1">
          <mxGeometry width="50" height="50" relative="1" as="geometry">
            <mxPoint x="270" y="650" as="sourcePoint" />
            <mxPoint x="327" y="705" as="targetPoint" />
          </mxGeometry>
        </mxCell>
        <mxCell id="jN78MGByrVWgOa9y6QcH-75" value="1-n" style="text;html=1;align=center;verticalAlign=middle;whiteSpace=wrap;rounded=0;" parent="1" vertex="1">
          <mxGeometry x="295" y="485" width="60" height="30" as="geometry" />
        </mxCell>
        <mxCell id="jN78MGByrVWgOa9y6QcH-76" value="1-n" style="text;html=1;align=center;verticalAlign=middle;whiteSpace=wrap;rounded=0;" parent="1" vertex="1">
          <mxGeometry x="272.5" y="595" width="60" height="30" as="geometry" />
        </mxCell>
        <mxCell id="FFxr7IrMRAUyUGKg6Z2R-1" value="" style="endArrow=classic;html=1;rounded=0;entryX=0;entryY=0.5;entryDx=0;entryDy=0;exitX=1;exitY=0.25;exitDx=0;exitDy=0;" edge="1" parent="1" source="Is15KDiJSmW2fym8Txf1-29" target="Is15KDiJSmW2fym8Txf1-31">
          <mxGeometry width="50" height="50" relative="1" as="geometry">
            <mxPoint x="400" y="720" as="sourcePoint" />
            <mxPoint x="450" y="670" as="targetPoint" />
          </mxGeometry>
        </mxCell>
        <mxCell id="FFxr7IrMRAUyUGKg6Z2R-2" value="" style="endArrow=classic;html=1;rounded=0;entryX=0;entryY=0.5;entryDx=0;entryDy=0;exitX=1;exitY=0.25;exitDx=0;exitDy=0;" edge="1" parent="1" source="Is15KDiJSmW2fym8Txf1-29" target="Is15KDiJSmW2fym8Txf1-32">
          <mxGeometry width="50" height="50" relative="1" as="geometry">
            <mxPoint x="409" y="703" as="sourcePoint" />
            <mxPoint x="458" y="660" as="targetPoint" />
          </mxGeometry>
        </mxCell>
        <mxCell id="FFxr7IrMRAUyUGKg6Z2R-3" value="" style="endArrow=classic;html=1;rounded=0;entryX=0;entryY=0.5;entryDx=0;entryDy=0;exitX=1;exitY=0.5;exitDx=0;exitDy=0;" edge="1" parent="1" source="Is15KDiJSmW2fym8Txf1-29" target="Is15KDiJSmW2fym8Txf1-33">
          <mxGeometry width="50" height="50" relative="1" as="geometry">
            <mxPoint x="409" y="703" as="sourcePoint" />
            <mxPoint x="490" y="700" as="targetPoint" />
          </mxGeometry>
        </mxCell>
        <mxCell id="FFxr7IrMRAUyUGKg6Z2R-4" value="" style="endArrow=classic;html=1;rounded=0;entryX=0.5;entryY=1;entryDx=0;entryDy=0;exitX=0.75;exitY=0;exitDx=0;exitDy=0;" edge="1" parent="1" source="Is15KDiJSmW2fym8Txf1-29" target="Is15KDiJSmW2fym8Txf1-30">
          <mxGeometry width="50" height="50" relative="1" as="geometry">
            <mxPoint x="409" y="703" as="sourcePoint" />
            <mxPoint x="458" y="660" as="targetPoint" />
          </mxGeometry>
        </mxCell>
        <mxCell id="FFxr7IrMRAUyUGKg6Z2R-5" value="" style="endArrow=classic;html=1;rounded=0;entryX=0.5;entryY=0;entryDx=0;entryDy=0;exitX=1;exitY=0.75;exitDx=0;exitDy=0;" edge="1" parent="1" source="Is15KDiJSmW2fym8Txf1-29" target="Is15KDiJSmW2fym8Txf1-34">
          <mxGeometry width="50" height="50" relative="1" as="geometry">
            <mxPoint x="409" y="710" as="sourcePoint" />
            <mxPoint x="478" y="730" as="targetPoint" />
          </mxGeometry>
        </mxCell>
        <mxCell id="FFxr7IrMRAUyUGKg6Z2R-6" value="" style="endArrow=classic;html=1;rounded=0;entryX=0.5;entryY=0;entryDx=0;entryDy=0;exitX=1;exitY=1;exitDx=0;exitDy=0;" edge="1" parent="1" source="Is15KDiJSmW2fym8Txf1-29" target="Is15KDiJSmW2fym8Txf1-35">
          <mxGeometry width="50" height="50" relative="1" as="geometry">
            <mxPoint x="409" y="718" as="sourcePoint" />
            <mxPoint x="505" y="753" as="targetPoint" />
          </mxGeometry>
        </mxCell>
        <mxCell id="FFxr7IrMRAUyUGKg6Z2R-7" value="" style="endArrow=classic;html=1;rounded=0;entryX=0.5;entryY=0;entryDx=0;entryDy=0;exitX=0.5;exitY=1;exitDx=0;exitDy=0;" edge="1" parent="1" source="Is15KDiJSmW2fym8Txf1-29" target="Is15KDiJSmW2fym8Txf1-36">
          <mxGeometry width="50" height="50" relative="1" as="geometry">
            <mxPoint x="409" y="725" as="sourcePoint" />
            <mxPoint x="439" y="760" as="targetPoint" />
          </mxGeometry>
        </mxCell>
        <mxCell id="FFxr7IrMRAUyUGKg6Z2R-8" value="Tiene" style="rhombus;whiteSpace=wrap;html=1;" vertex="1" parent="1">
          <mxGeometry x="252.5" y="730" width="60" height="45" as="geometry" />
        </mxCell>
        <mxCell id="FFxr7IrMRAUyUGKg6Z2R-9" value="" style="endArrow=classic;html=1;rounded=0;entryX=0;entryY=0.75;entryDx=0;entryDy=0;exitX=0.5;exitY=0;exitDx=0;exitDy=0;" edge="1" parent="1" source="FFxr7IrMRAUyUGKg6Z2R-8" target="Is15KDiJSmW2fym8Txf1-29">
          <mxGeometry width="50" height="50" relative="1" as="geometry">
            <mxPoint x="394" y="695" as="sourcePoint" />
            <mxPoint x="386" y="675" as="targetPoint" />
          </mxGeometry>
        </mxCell>
        <mxCell id="FFxr7IrMRAUyUGKg6Z2R-10" value="" style="endArrow=classic;html=1;rounded=0;entryX=0.5;entryY=0;entryDx=0;entryDy=0;exitX=0.5;exitY=1;exitDx=0;exitDy=0;" edge="1" parent="1" source="FFxr7IrMRAUyUGKg6Z2R-8" target="Is15KDiJSmW2fym8Txf1-85">
          <mxGeometry width="50" height="50" relative="1" as="geometry">
            <mxPoint x="293" y="740" as="sourcePoint" />
            <mxPoint x="349" y="718" as="targetPoint" />
          </mxGeometry>
        </mxCell>
        <mxCell id="FFxr7IrMRAUyUGKg6Z2R-11" value="1-n" style="text;html=1;align=center;verticalAlign=middle;whiteSpace=wrap;rounded=0;" vertex="1" parent="1">
          <mxGeometry x="295" y="737.5" width="60" height="30" as="geometry" />
        </mxCell>
        <mxCell id="jN78MGByrVWgOa9y6QcH-4" value="Total" style="ellipse;whiteSpace=wrap;html=1;" parent="1" vertex="1">
          <mxGeometry x="850" y="920" width="70" height="30" as="geometry" />
        </mxCell>
        <mxCell id="FFxr7IrMRAUyUGKg6Z2R-14" value="" style="endArrow=classic;html=1;rounded=0;entryX=1;entryY=0.5;entryDx=0;entryDy=0;exitX=0;exitY=0;exitDx=0;exitDy=0;" edge="1" parent="1" source="jN78MGByrVWgOa9y6QcH-1" target="jN78MGByrVWgOa9y6QcH-5">
          <mxGeometry width="50" height="50" relative="1" as="geometry">
            <mxPoint x="770" y="1040" as="sourcePoint" />
            <mxPoint x="820" y="990" as="targetPoint" />
          </mxGeometry>
        </mxCell>
        <mxCell id="FFxr7IrMRAUyUGKg6Z2R-15" value="" style="endArrow=classic;html=1;rounded=0;entryX=0.5;entryY=1;entryDx=0;entryDy=0;exitX=0.25;exitY=0;exitDx=0;exitDy=0;" edge="1" parent="1" source="jN78MGByrVWgOa9y6QcH-1" target="jN78MGByrVWgOa9y6QcH-3">
          <mxGeometry width="50" height="50" relative="1" as="geometry">
            <mxPoint x="770" y="930" as="sourcePoint" />
            <mxPoint x="757" y="903" as="targetPoint" />
          </mxGeometry>
        </mxCell>
        <mxCell id="FFxr7IrMRAUyUGKg6Z2R-16" value="" style="endArrow=classic;html=1;rounded=0;entryX=0;entryY=1;entryDx=0;entryDy=0;exitX=0.75;exitY=0;exitDx=0;exitDy=0;" edge="1" parent="1" source="jN78MGByrVWgOa9y6QcH-1" target="jN78MGByrVWgOa9y6QcH-2">
          <mxGeometry width="50" height="50" relative="1" as="geometry">
            <mxPoint x="785" y="930" as="sourcePoint" />
            <mxPoint x="785" y="875" as="targetPoint" />
          </mxGeometry>
        </mxCell>
        <mxCell id="FFxr7IrMRAUyUGKg6Z2R-17" value="" style="endArrow=classic;html=1;rounded=0;entryX=0;entryY=0.5;entryDx=0;entryDy=0;exitX=1;exitY=0.5;exitDx=0;exitDy=0;" edge="1" parent="1" source="jN78MGByrVWgOa9y6QcH-1" target="jN78MGByrVWgOa9y6QcH-4">
          <mxGeometry width="50" height="50" relative="1" as="geometry">
            <mxPoint x="815" y="930" as="sourcePoint" />
            <mxPoint x="851" y="899" as="targetPoint" />
          </mxGeometry>
        </mxCell>
        <mxCell id="FFxr7IrMRAUyUGKg6Z2R-18" value="" style="endArrow=classic;html=1;rounded=0;entryX=0;entryY=0.5;entryDx=0;entryDy=0;exitX=1;exitY=0;exitDx=0;exitDy=0;" edge="1" parent="1" source="Is15KDiJSmW2fym8Txf1-45" target="Is15KDiJSmW2fym8Txf1-47">
          <mxGeometry width="50" height="50" relative="1" as="geometry">
            <mxPoint x="830" y="945" as="sourcePoint" />
            <mxPoint x="860" y="945" as="targetPoint" />
          </mxGeometry>
        </mxCell>
        <mxCell id="FFxr7IrMRAUyUGKg6Z2R-19" value="" style="endArrow=classic;html=1;rounded=0;entryX=0;entryY=0.5;entryDx=0;entryDy=0;exitX=1;exitY=0.25;exitDx=0;exitDy=0;" edge="1" parent="1" source="Is15KDiJSmW2fym8Txf1-45" target="Is15KDiJSmW2fym8Txf1-46">
          <mxGeometry width="50" height="50" relative="1" as="geometry">
            <mxPoint x="920" y="1080" as="sourcePoint" />
            <mxPoint x="947" y="1065" as="targetPoint" />
          </mxGeometry>
        </mxCell>
        <mxCell id="FFxr7IrMRAUyUGKg6Z2R-21" value="" style="endArrow=classic;html=1;rounded=0;entryX=0;entryY=0;entryDx=0;entryDy=0;exitX=1;exitY=0.5;exitDx=0;exitDy=0;" edge="1" parent="1" source="Is15KDiJSmW2fym8Txf1-45" target="Is15KDiJSmW2fym8Txf1-50">
          <mxGeometry width="50" height="50" relative="1" as="geometry">
            <mxPoint x="920" y="1088" as="sourcePoint" />
            <mxPoint x="965" y="1105" as="targetPoint" />
          </mxGeometry>
        </mxCell>
        <mxCell id="FFxr7IrMRAUyUGKg6Z2R-22" value="" style="endArrow=classic;html=1;rounded=0;entryX=0.5;entryY=0;entryDx=0;entryDy=0;exitX=0.75;exitY=1;exitDx=0;exitDy=0;" edge="1" parent="1" source="Is15KDiJSmW2fym8Txf1-45" target="Is15KDiJSmW2fym8Txf1-48">
          <mxGeometry width="50" height="50" relative="1" as="geometry">
            <mxPoint x="920" y="1095" as="sourcePoint" />
            <mxPoint x="958" y="1135" as="targetPoint" />
          </mxGeometry>
        </mxCell>
        <mxCell id="FFxr7IrMRAUyUGKg6Z2R-23" value="" style="endArrow=classic;html=1;rounded=0;entryX=1;entryY=0;entryDx=0;entryDy=0;exitX=0.25;exitY=1;exitDx=0;exitDy=0;" edge="1" parent="1" source="Is15KDiJSmW2fym8Txf1-45" target="Is15KDiJSmW2fym8Txf1-49">
          <mxGeometry width="50" height="50" relative="1" as="geometry">
            <mxPoint x="905" y="1110" as="sourcePoint" />
            <mxPoint x="912" y="1149" as="targetPoint" />
          </mxGeometry>
        </mxCell>
        <mxCell id="FFxr7IrMRAUyUGKg6Z2R-24" value="Abastece" style="rhombus;whiteSpace=wrap;html=1;" vertex="1" parent="1">
          <mxGeometry x="794" y="975" width="63" height="65" as="geometry" />
        </mxCell>
        <mxCell id="FFxr7IrMRAUyUGKg6Z2R-25" value="" style="endArrow=classic;html=1;rounded=0;entryX=0.75;entryY=1;entryDx=0;entryDy=0;exitX=0.5;exitY=0;exitDx=0;exitDy=0;" edge="1" parent="1" source="FFxr7IrMRAUyUGKg6Z2R-24" target="jN78MGByrVWgOa9y6QcH-1">
          <mxGeometry width="50" height="50" relative="1" as="geometry">
            <mxPoint x="767" y="989.31" as="sourcePoint" />
            <mxPoint x="797" y="989.31" as="targetPoint" />
          </mxGeometry>
        </mxCell>
        <mxCell id="FFxr7IrMRAUyUGKg6Z2R-26" value="" style="endArrow=classic;html=1;rounded=0;entryX=0.25;entryY=0;entryDx=0;entryDy=0;exitX=0.5;exitY=1;exitDx=0;exitDy=0;" edge="1" parent="1" source="FFxr7IrMRAUyUGKg6Z2R-24" target="Is15KDiJSmW2fym8Txf1-45">
          <mxGeometry width="50" height="50" relative="1" as="geometry">
            <mxPoint x="837" y="993" as="sourcePoint" />
            <mxPoint x="815" y="960" as="targetPoint" />
          </mxGeometry>
        </mxCell>
        <mxCell id="FFxr7IrMRAUyUGKg6Z2R-27" value="1-n" style="text;html=1;align=center;verticalAlign=middle;whiteSpace=wrap;rounded=0;" vertex="1" parent="1">
          <mxGeometry x="842" y="992.5" width="60" height="30" as="geometry" />
        </mxCell>
        <mxCell id="FFxr7IrMRAUyUGKg6Z2R-28" value="Tiene" style="rhombus;whiteSpace=wrap;html=1;" vertex="1" parent="1">
          <mxGeometry x="667" y="970" width="60" height="45" as="geometry" />
        </mxCell>
        <mxCell id="FFxr7IrMRAUyUGKg6Z2R-30" value="" style="endArrow=classic;html=1;rounded=0;entryX=0;entryY=1;entryDx=0;entryDy=0;exitX=0.5;exitY=0;exitDx=0;exitDy=0;" edge="1" parent="1" source="FFxr7IrMRAUyUGKg6Z2R-28" target="jN78MGByrVWgOa9y6QcH-1">
          <mxGeometry width="50" height="50" relative="1" as="geometry">
            <mxPoint x="836" y="985" as="sourcePoint" />
            <mxPoint x="815" y="960" as="targetPoint" />
          </mxGeometry>
        </mxCell>
        <mxCell id="FFxr7IrMRAUyUGKg6Z2R-31" value="" style="endArrow=classic;html=1;rounded=0;entryX=0.5;entryY=0;entryDx=0;entryDy=0;exitX=0;exitY=0.5;exitDx=0;exitDy=0;" edge="1" parent="1" source="FFxr7IrMRAUyUGKg6Z2R-28" target="jN78MGByrVWgOa9y6QcH-11">
          <mxGeometry width="50" height="50" relative="1" as="geometry">
            <mxPoint x="707" y="980" as="sourcePoint" />
            <mxPoint x="770" y="960" as="targetPoint" />
          </mxGeometry>
        </mxCell>
        <mxCell id="FFxr7IrMRAUyUGKg6Z2R-32" value="1-n" style="text;html=1;align=center;verticalAlign=middle;whiteSpace=wrap;rounded=0;" vertex="1" parent="1">
          <mxGeometry x="709" y="980" width="60" height="30" as="geometry" />
        </mxCell>
        <mxCell id="FFxr7IrMRAUyUGKg6Z2R-33" value="" style="endArrow=classic;html=1;rounded=0;entryX=1;entryY=1;entryDx=0;entryDy=0;exitX=0;exitY=0.25;exitDx=0;exitDy=0;" edge="1" parent="1" source="jN78MGByrVWgOa9y6QcH-11" target="jN78MGByrVWgOa9y6QcH-12">
          <mxGeometry width="50" height="50" relative="1" as="geometry">
            <mxPoint x="677" y="1003" as="sourcePoint" />
            <mxPoint x="622" y="1045" as="targetPoint" />
          </mxGeometry>
        </mxCell>
        <mxCell id="FFxr7IrMRAUyUGKg6Z2R-34" value="" style="endArrow=classic;html=1;rounded=0;entryX=1;entryY=0.5;entryDx=0;entryDy=0;exitX=0;exitY=1;exitDx=0;exitDy=0;" edge="1" parent="1" source="jN78MGByrVWgOa9y6QcH-11" target="jN78MGByrVWgOa9y6QcH-14">
          <mxGeometry width="50" height="50" relative="1" as="geometry">
            <mxPoint x="598" y="1045" as="sourcePoint" />
            <mxPoint x="562" y="1023" as="targetPoint" />
          </mxGeometry>
        </mxCell>
        <mxCell id="FFxr7IrMRAUyUGKg6Z2R-35" value="" style="endArrow=classic;html=1;rounded=0;entryX=1;entryY=0;entryDx=0;entryDy=0;exitX=0.25;exitY=1;exitDx=0;exitDy=0;" edge="1" parent="1" source="jN78MGByrVWgOa9y6QcH-11" target="jN78MGByrVWgOa9y6QcH-15">
          <mxGeometry width="50" height="50" relative="1" as="geometry">
            <mxPoint x="598" y="1045" as="sourcePoint" />
            <mxPoint x="562" y="1023" as="targetPoint" />
          </mxGeometry>
        </mxCell>
        <mxCell id="FFxr7IrMRAUyUGKg6Z2R-36" value="" style="endArrow=classic;html=1;rounded=0;entryX=0.5;entryY=0;entryDx=0;entryDy=0;exitX=0.5;exitY=1;exitDx=0;exitDy=0;" edge="1" parent="1" source="jN78MGByrVWgOa9y6QcH-11" target="jN78MGByrVWgOa9y6QcH-16">
          <mxGeometry width="50" height="50" relative="1" as="geometry">
            <mxPoint x="598" y="1075" as="sourcePoint" />
            <mxPoint x="565" y="1105" as="targetPoint" />
          </mxGeometry>
        </mxCell>
        <mxCell id="FFxr7IrMRAUyUGKg6Z2R-37" value="" style="endArrow=classic;html=1;rounded=0;entryX=0;entryY=0;entryDx=0;entryDy=0;exitX=0.75;exitY=1;exitDx=0;exitDy=0;" edge="1" parent="1" source="jN78MGByrVWgOa9y6QcH-11" target="jN78MGByrVWgOa9y6QcH-19">
          <mxGeometry width="50" height="50" relative="1" as="geometry">
            <mxPoint x="622" y="1075" as="sourcePoint" />
            <mxPoint x="622" y="1125" as="targetPoint" />
          </mxGeometry>
        </mxCell>
        <mxCell id="FFxr7IrMRAUyUGKg6Z2R-38" value="" style="endArrow=classic;html=1;rounded=0;entryX=0;entryY=0;entryDx=0;entryDy=0;exitX=1;exitY=0.5;exitDx=0;exitDy=0;" edge="1" parent="1" source="jN78MGByrVWgOa9y6QcH-11" target="jN78MGByrVWgOa9y6QcH-13">
          <mxGeometry width="50" height="50" relative="1" as="geometry">
            <mxPoint x="645" y="1075" as="sourcePoint" />
            <mxPoint x="690" y="1130" as="targetPoint" />
          </mxGeometry>
        </mxCell>
        <mxCell id="FFxr7IrMRAUyUGKg6Z2R-39" value="Aparece" style="rhombus;whiteSpace=wrap;html=1;" vertex="1" parent="1">
          <mxGeometry x="490.5" y="880" width="60" height="45" as="geometry" />
        </mxCell>
        <mxCell id="FFxr7IrMRAUyUGKg6Z2R-40" value="" style="endArrow=classic;html=1;rounded=0;entryX=0.25;entryY=0;entryDx=0;entryDy=0;exitX=0.5;exitY=1;exitDx=0;exitDy=0;" edge="1" parent="1" source="FFxr7IrMRAUyUGKg6Z2R-39" target="jN78MGByrVWgOa9y6QcH-11">
          <mxGeometry width="50" height="50" relative="1" as="geometry">
            <mxPoint x="677" y="1003" as="sourcePoint" />
            <mxPoint x="622" y="1045" as="targetPoint" />
          </mxGeometry>
        </mxCell>
        <mxCell id="FFxr7IrMRAUyUGKg6Z2R-41" value="" style="endArrow=classic;html=1;rounded=0;entryX=1;entryY=1;entryDx=0;entryDy=0;exitX=0.5;exitY=0;exitDx=0;exitDy=0;" edge="1" parent="1" source="FFxr7IrMRAUyUGKg6Z2R-39" target="Is15KDiJSmW2fym8Txf1-29">
          <mxGeometry width="50" height="50" relative="1" as="geometry">
            <mxPoint x="429" y="770" as="sourcePoint" />
            <mxPoint x="379" y="725" as="targetPoint" />
          </mxGeometry>
        </mxCell>
        <mxCell id="FFxr7IrMRAUyUGKg6Z2R-42" value="1-n" style="text;html=1;align=center;verticalAlign=middle;whiteSpace=wrap;rounded=0;" vertex="1" parent="1">
          <mxGeometry x="533.5" y="887.5" width="60" height="30" as="geometry" />
        </mxCell>
        <mxCell id="FFxr7IrMRAUyUGKg6Z2R-45" value="" style="endArrow=classic;html=1;rounded=0;entryX=0.5;entryY=1;entryDx=0;entryDy=0;exitX=0.25;exitY=0;exitDx=0;exitDy=0;" edge="1" parent="1" source="jN78MGByrVWgOa9y6QcH-28" target="jN78MGByrVWgOa9y6QcH-31">
          <mxGeometry width="50" height="50" relative="1" as="geometry">
            <mxPoint x="690" y="740" as="sourcePoint" />
            <mxPoint x="740" y="690" as="targetPoint" />
          </mxGeometry>
        </mxCell>
        <mxCell id="FFxr7IrMRAUyUGKg6Z2R-46" value="" style="endArrow=classic;html=1;rounded=0;entryX=0.5;entryY=1;entryDx=0;entryDy=0;exitX=1;exitY=0;exitDx=0;exitDy=0;" edge="1" parent="1" source="jN78MGByrVWgOa9y6QcH-28" target="jN78MGByrVWgOa9y6QcH-30">
          <mxGeometry width="50" height="50" relative="1" as="geometry">
            <mxPoint x="825" y="677" as="sourcePoint" />
            <mxPoint x="812" y="655" as="targetPoint" />
          </mxGeometry>
        </mxCell>
        <mxCell id="FFxr7IrMRAUyUGKg6Z2R-47" value="" style="endArrow=classic;html=1;rounded=0;entryX=0;entryY=0.5;entryDx=0;entryDy=0;exitX=1;exitY=0.5;exitDx=0;exitDy=0;" edge="1" parent="1" source="jN78MGByrVWgOa9y6QcH-28" target="jN78MGByrVWgOa9y6QcH-29">
          <mxGeometry width="50" height="50" relative="1" as="geometry">
            <mxPoint x="878" y="677" as="sourcePoint" />
            <mxPoint x="932" y="655" as="targetPoint" />
          </mxGeometry>
        </mxCell>
        <mxCell id="FFxr7IrMRAUyUGKg6Z2R-48" value="" style="endArrow=classic;html=1;rounded=0;entryX=0.5;entryY=0;entryDx=0;entryDy=0;exitX=1;exitY=1;exitDx=0;exitDy=0;" edge="1" parent="1" source="jN78MGByrVWgOa9y6QcH-28" target="jN78MGByrVWgOa9y6QcH-32">
          <mxGeometry width="50" height="50" relative="1" as="geometry">
            <mxPoint x="878" y="692" as="sourcePoint" />
            <mxPoint x="912" y="700" as="targetPoint" />
          </mxGeometry>
        </mxCell>
        <mxCell id="FFxr7IrMRAUyUGKg6Z2R-49" value="Pertenece" style="rhombus;whiteSpace=wrap;html=1;" vertex="1" parent="1">
          <mxGeometry x="622" y="666.5" width="80" height="60" as="geometry" />
        </mxCell>
        <mxCell id="FFxr7IrMRAUyUGKg6Z2R-50" value="" style="endArrow=classic;html=1;rounded=0;entryX=0;entryY=0.5;entryDx=0;entryDy=0;exitX=1;exitY=0.5;exitDx=0;exitDy=0;" edge="1" parent="1" source="FFxr7IrMRAUyUGKg6Z2R-49" target="jN78MGByrVWgOa9y6QcH-28">
          <mxGeometry width="50" height="50" relative="1" as="geometry">
            <mxPoint x="825" y="677" as="sourcePoint" />
            <mxPoint x="812" y="655" as="targetPoint" />
          </mxGeometry>
        </mxCell>
        <mxCell id="FFxr7IrMRAUyUGKg6Z2R-51" value="" style="endArrow=classic;html=1;rounded=0;entryX=1;entryY=0.5;entryDx=0;entryDy=0;exitX=0;exitY=0.5;exitDx=0;exitDy=0;" edge="1" parent="1" source="FFxr7IrMRAUyUGKg6Z2R-49" target="Is15KDiJSmW2fym8Txf1-29">
          <mxGeometry width="50" height="50" relative="1" as="geometry">
            <mxPoint x="712" y="707" as="sourcePoint" />
            <mxPoint x="808" y="692" as="targetPoint" />
          </mxGeometry>
        </mxCell>
        <mxCell id="FFxr7IrMRAUyUGKg6Z2R-52" value="Created_by&lt;div&gt;Deleted_by&lt;/div&gt;&lt;div&gt;Updated_by&lt;/div&gt;" style="rhombus;whiteSpace=wrap;html=1;" vertex="1" parent="1">
          <mxGeometry x="633.75" y="378.75" width="126.5" height="102.5" as="geometry" />
        </mxCell>
        <mxCell id="FFxr7IrMRAUyUGKg6Z2R-53" value="1-1" style="text;html=1;align=center;verticalAlign=middle;whiteSpace=wrap;rounded=0;" vertex="1" parent="1">
          <mxGeometry x="632" y="640" width="60" height="30" as="geometry" />
        </mxCell>
        <mxCell id="FFxr7IrMRAUyUGKg6Z2R-54" value="" style="endArrow=classic;html=1;rounded=0;entryX=0.5;entryY=0;entryDx=0;entryDy=0;exitX=1;exitY=1;exitDx=0;exitDy=0;" edge="1" parent="1" source="FFxr7IrMRAUyUGKg6Z2R-52" target="jN78MGByrVWgOa9y6QcH-28">
          <mxGeometry width="50" height="50" relative="1" as="geometry">
            <mxPoint x="563" y="405" as="sourcePoint" />
            <mxPoint x="659" y="390" as="targetPoint" />
          </mxGeometry>
        </mxCell>
        <mxCell id="FFxr7IrMRAUyUGKg6Z2R-55" value="" style="endArrow=classic;html=1;rounded=0;entryX=0.75;entryY=0;entryDx=0;entryDy=0;exitX=0.5;exitY=1;exitDx=0;exitDy=0;" edge="1" parent="1" source="FFxr7IrMRAUyUGKg6Z2R-52" target="Is15KDiJSmW2fym8Txf1-15">
          <mxGeometry width="50" height="50" relative="1" as="geometry">
            <mxPoint x="572" y="347" as="sourcePoint" />
            <mxPoint x="843" y="677" as="targetPoint" />
          </mxGeometry>
        </mxCell>
        <mxCell id="FFxr7IrMRAUyUGKg6Z2R-56" value="" style="endArrow=classic;html=1;rounded=0;entryX=1;entryY=0.5;entryDx=0;entryDy=0;exitX=0;exitY=0.5;exitDx=0;exitDy=0;" edge="1" parent="1" source="FFxr7IrMRAUyUGKg6Z2R-52" target="Is15KDiJSmW2fym8Txf1-1">
          <mxGeometry width="50" height="50" relative="1" as="geometry">
            <mxPoint x="540" y="373" as="sourcePoint" />
            <mxPoint x="467" y="535" as="targetPoint" />
          </mxGeometry>
        </mxCell>
        <mxCell id="FFxr7IrMRAUyUGKg6Z2R-57" value="" style="endArrow=classic;html=1;rounded=0;entryX=0.5;entryY=0;entryDx=0;entryDy=0;exitX=1;exitY=1;exitDx=0;exitDy=0;" edge="1" parent="1" source="FFxr7IrMRAUyUGKg6Z2R-52" target="jN78MGByrVWgOa9y6QcH-1">
          <mxGeometry width="50" height="50" relative="1" as="geometry">
            <mxPoint x="861" y="536" as="sourcePoint" />
            <mxPoint x="632" y="570" as="targetPoint" />
          </mxGeometry>
        </mxCell>
        <mxCell id="FFxr7IrMRAUyUGKg6Z2R-58" value="" style="endArrow=classic;html=1;rounded=0;entryX=0.5;entryY=0;entryDx=0;entryDy=0;exitX=1;exitY=0.5;exitDx=0;exitDy=0;" edge="1" parent="1" source="FFxr7IrMRAUyUGKg6Z2R-52" target="Is15KDiJSmW2fym8Txf1-45">
          <mxGeometry width="50" height="50" relative="1" as="geometry">
            <mxPoint x="572" y="347" as="sourcePoint" />
            <mxPoint x="800" y="930" as="targetPoint" />
          </mxGeometry>
        </mxCell>
        <mxCell id="FFxr7IrMRAUyUGKg6Z2R-59" value="" style="endArrow=classic;html=1;rounded=0;entryX=0.444;entryY=0.095;entryDx=0;entryDy=0;exitX=0.5;exitY=1;exitDx=0;exitDy=0;entryPerimeter=0;" edge="1" parent="1" source="FFxr7IrMRAUyUGKg6Z2R-52" target="jN78MGByrVWgOa9y6QcH-11">
          <mxGeometry width="50" height="50" relative="1" as="geometry">
            <mxPoint x="604" y="321" as="sourcePoint" />
            <mxPoint x="890" y="1080" as="targetPoint" />
          </mxGeometry>
        </mxCell>
        <mxCell id="FFxr7IrMRAUyUGKg6Z2R-60" value="" style="endArrow=classic;html=1;rounded=0;entryX=1;entryY=0;entryDx=0;entryDy=0;exitX=0.266;exitY=0.8;exitDx=0;exitDy=0;exitPerimeter=0;" edge="1" parent="1" source="FFxr7IrMRAUyUGKg6Z2R-52" target="Is15KDiJSmW2fym8Txf1-72">
          <mxGeometry width="50" height="50" relative="1" as="geometry">
            <mxPoint x="540" y="373" as="sourcePoint" />
            <mxPoint x="467" y="535" as="targetPoint" />
          </mxGeometry>
        </mxCell>
        <mxCell id="FFxr7IrMRAUyUGKg6Z2R-61" value="" style="endArrow=classic;html=1;rounded=0;entryX=0.5;entryY=0;entryDx=0;entryDy=0;exitX=0;exitY=1;exitDx=0;exitDy=0;" edge="1" parent="1" source="FFxr7IrMRAUyUGKg6Z2R-52" target="Is15KDiJSmW2fym8Txf1-29">
          <mxGeometry width="50" height="50" relative="1" as="geometry">
            <mxPoint x="500" y="340" as="sourcePoint" />
            <mxPoint x="243" y="540" as="targetPoint" />
          </mxGeometry>
        </mxCell>
        <mxCell id="FFxr7IrMRAUyUGKg6Z2R-62" value="" style="endArrow=classic;html=1;rounded=0;entryX=0.25;entryY=0;entryDx=0;entryDy=0;exitX=0;exitY=1;exitDx=0;exitDy=0;" edge="1" parent="1" source="FFxr7IrMRAUyUGKg6Z2R-52" target="Is15KDiJSmW2fym8Txf1-85">
          <mxGeometry width="50" height="50" relative="1" as="geometry">
            <mxPoint x="511" y="352" as="sourcePoint" />
            <mxPoint x="243" y="540" as="targetPoint" />
          </mxGeometry>
        </mxCell>
        <mxCell id="FFxr7IrMRAUyUGKg6Z2R-63" value="" style="endArrow=classic;html=1;rounded=0;entryX=0.5;entryY=1;entryDx=0;entryDy=0;exitX=0.67;exitY=0.038;exitDx=0;exitDy=0;exitPerimeter=0;" edge="1" parent="1" source="Is15KDiJSmW2fym8Txf1-57" target="Is15KDiJSmW2fym8Txf1-58">
          <mxGeometry width="50" height="50" relative="1" as="geometry">
            <mxPoint x="680" y="330" as="sourcePoint" />
            <mxPoint x="730" y="280" as="targetPoint" />
          </mxGeometry>
        </mxCell>
        <mxCell id="FFxr7IrMRAUyUGKg6Z2R-64" value="" style="endArrow=classic;html=1;rounded=0;entryX=1;entryY=0.5;entryDx=0;entryDy=0;exitX=0.25;exitY=0;exitDx=0;exitDy=0;" edge="1" parent="1" source="Is15KDiJSmW2fym8Txf1-57" target="Is15KDiJSmW2fym8Txf1-62">
          <mxGeometry width="50" height="50" relative="1" as="geometry">
            <mxPoint x="896" y="396" as="sourcePoint" />
            <mxPoint x="902" y="370" as="targetPoint" />
          </mxGeometry>
        </mxCell>
        <mxCell id="FFxr7IrMRAUyUGKg6Z2R-65" value="" style="endArrow=classic;html=1;rounded=0;entryX=0;entryY=0.5;entryDx=0;entryDy=0;exitX=1;exitY=0;exitDx=0;exitDy=0;" edge="1" parent="1" source="Is15KDiJSmW2fym8Txf1-57" target="Is15KDiJSmW2fym8Txf1-60">
          <mxGeometry width="50" height="50" relative="1" as="geometry">
            <mxPoint x="871" y="395" as="sourcePoint" />
            <mxPoint x="839" y="374" as="targetPoint" />
          </mxGeometry>
        </mxCell>
        <mxCell id="FFxr7IrMRAUyUGKg6Z2R-66" value="" style="endArrow=classic;html=1;rounded=0;entryX=0;entryY=0.5;entryDx=0;entryDy=0;exitX=1;exitY=1;exitDx=0;exitDy=0;" edge="1" parent="1" source="Is15KDiJSmW2fym8Txf1-57" target="Is15KDiJSmW2fym8Txf1-64">
          <mxGeometry width="50" height="50" relative="1" as="geometry">
            <mxPoint x="916" y="395" as="sourcePoint" />
            <mxPoint x="932" y="385" as="targetPoint" />
          </mxGeometry>
        </mxCell>
        <mxCell id="FFxr7IrMRAUyUGKg6Z2R-67" value="" style="endArrow=classic;html=1;rounded=0;entryX=0.5;entryY=0;entryDx=0;entryDy=0;exitX=0.75;exitY=1;exitDx=0;exitDy=0;" edge="1" parent="1" source="Is15KDiJSmW2fym8Txf1-57" target="Is15KDiJSmW2fym8Txf1-69">
          <mxGeometry width="50" height="50" relative="1" as="geometry">
            <mxPoint x="916" y="425" as="sourcePoint" />
            <mxPoint x="947" y="435" as="targetPoint" />
          </mxGeometry>
        </mxCell>
        <mxCell id="FFxr7IrMRAUyUGKg6Z2R-68" value="" style="endArrow=classic;html=1;rounded=0;entryX=0;entryY=0.5;entryDx=0;entryDy=0;exitX=1;exitY=0.5;exitDx=0;exitDy=0;" edge="1" parent="1" source="FFxr7IrMRAUyUGKg6Z2R-52" target="Is15KDiJSmW2fym8Txf1-57">
          <mxGeometry width="50" height="50" relative="1" as="geometry">
            <mxPoint x="871" y="395" as="sourcePoint" />
            <mxPoint x="839" y="374" as="targetPoint" />
          </mxGeometry>
        </mxCell>
        <mxCell id="FFxr7IrMRAUyUGKg6Z2R-69" value="n-1" style="text;html=1;align=center;verticalAlign=middle;whiteSpace=wrap;rounded=0;" vertex="1" parent="1">
          <mxGeometry x="659" y="348.75" width="60" height="30" as="geometry" />
        </mxCell>
      </root>
    </mxGraphModel>
  </diagram>
</mxfile>
